<?xml version="1.0" encoding="utf-8"?>
<!-- Generator: Adobe Illustrator 17.0.0, SVG Export Plug-In . SVG Version: 6.00 Build 0)  -->
<!DOCTYPE svg PUBLIC "-//W3C//DTD SVG 1.1//EN" "http://www.w3.org/Graphics/SVG/1.1/DTD/svg11.dtd">
<svg version="1.1" id="Layer_1" xmlns="http://www.w3.org/2000/svg" xmlns:xlink="http://www.w3.org/1999/xlink" x="0px" y="0px"
	 width="841.89px" height="595.28px" viewBox="0 0 841.89 595.28" enable-background="new 0 0 841.89 595.28" xml:space="preserve">
<title>02</title>
<g>
	<path fill="#FF0000" d="M375.54,19.634c8.592,0.781,17.202,1.402,25.772,2.372c26.028,2.948,51.066,9.707,75.336,19.546
		c21.525,8.726,41.307,20.45,59.798,34.363c6.811,5.125,11.885,10.325,3.128,20.879c-3.012,3.63-5.349,7.835-7.866,11.856
		c-3.563,5.692-9.942,7.049-15.861,3.178c-10.204-6.672-20.051-13.966-30.629-19.974c-26.002-14.769-53.824-24.462-83.641-28.117
		c-30.952-3.794-61.635-2.591-91.813,5.47c-33.376,8.914-63.525,24.271-90.222,46.367c-26.452,21.895-47.171,48.211-62.328,79.001
		c-20.105,40.839-26.79,84-22.351,129.038c3.755,38.095,16.878,72.992,37.956,104.727c23.543,35.445,54.542,62.809,92.852,81.537
		c26.437,12.924,54.25,20.901,83.764,23.222c46.046,3.621,89.529-4.729,130.418-26.238c25.573-13.452,47.788-31.139,67-52.773
		c25.833-29.089,43.123-62.62,52.657-100.152c4.785-18.837,6.767-38.11,6.328-57.593c-0.07-3.12,0.067-6.264,0.387-9.369
		c0.787-7.626,3.68-11.118,11.16-12.329c5.835-0.944,11.813-1.41,17.724-1.38c7.841,0.04,11.979,3.848,11.898,11.953
		c-0.163,16.348-0.177,32.787-1.937,49.006c-2.365,21.783-8.189,42.923-16.023,63.431c-10.065,26.349-24.251,50.337-41.657,72.489
		c-20.48,26.064-45.118,47.439-73.242,64.8c-27.873,17.206-58.036,28.658-90.153,35.104c-22.038,4.423-44.255,6.462-66.694,5.257
		c-33.887-1.819-66.483-9.271-97.735-22.68c-26.23-11.255-49.887-26.554-71.544-44.964c-17.674-15.024-32.792-32.43-46.121-51.416
		c-20.796-29.622-34.99-62.125-42.973-97.395c-3.82-16.878-6.264-33.925-6.835-51.232c-0.053-1.617-0.392-3.224-0.598-4.836
		c0-3.285,0-6.571,0-9.856c0.206-1.764,0.528-3.523,0.599-5.293c0.693-17.133,3.026-34.028,6.814-50.757
		c8.282-36.576,23.145-70.153,45.151-100.561c12.796-17.681,27.139-33.963,43.746-48.138c22.528-19.231,47.219-35.049,74.658-46.435
		c24.174-10.031,49.248-16.611,75.227-19.673c8.709-1.026,17.467-1.635,26.202-2.435C367.774,19.634,371.657,19.634,375.54,19.634z"
		/>
	<path fill="#FF0000" d="M741.591,62.157c-1.075,3.804-1.862,6.863-2.803,9.874c-5.439,17.418-10.914,34.824-16.379,52.234
		c-1.673,5.329-1.486,5.729,3.917,6.426c21.099,2.72,42.208,5.359,63.303,8.101c4.319,0.561,8.598,1.433,13.777,2.311
		c-5.52,3.201-10.416,6.048-15.32,8.882c-28.848,16.678-57.713,33.327-86.538,50.044c-8.534,4.949-16.81,10.37-25.519,14.978
		c-2.914,1.542-6.801,1.599-10.258,1.674c-4.735,0.104-9.481-0.528-14.227-0.658c-13.846-0.38-27.701-0.512-41.538-1.077
		c-4.935-0.202-9.297,0.937-13.561,3.143c-20.01,10.348-40.037,20.663-60.051,31.004c-30.235,15.623-60.462,31.262-90.699,46.881
		c-4.696,2.426-9.426,4.784-14.149,7.157c-0.924,0.464-2.151,1.458-2.79,1.18c-5.3-2.31-5.678,1.585-6.378,4.929
		c-4.729,22.593-18.735,36.394-40.752,41.891c-23.95,5.98-50.998-9.539-59.635-32.899c-6.173-16.696-4.194-32.347,5.181-46.832
		c8.754-13.524,21.477-21.537,37.856-23.494c14.643-1.75,27.307,2.399,38.706,11.399c0.931,0.735,2.932,1.135,3.903,0.641
		c9.681-4.917,19.138-10.28,28.874-15.081c17.153-8.458,34.441-16.645,51.701-24.883c19.375-9.247,38.796-18.397,58.171-27.645
		c11.687-5.579,23.351-11.209,34.95-16.968c1.484-0.737,2.77-2.22,3.714-3.645c10.749-16.232,21.384-32.54,32.153-48.758
		c1.005-1.514,2.519-2.978,4.137-3.755c24.054-11.546,48.172-22.959,72.261-34.433c14.656-6.981,29.287-14.017,43.936-21.012
		C738.557,63.278,739.643,62.924,741.591,62.157z"/>
	<path fill="#FF0000" d="M369.603,478.115c-43.175-0.692-80.417-12.973-112.615-38.778c-31.595-25.322-52.783-57.697-62.319-97.3
		c-8.033-33.362-6.514-66.288,4.552-98.835c12.857-37.815,36.128-67.578,68.902-90.095c25.297-17.38,53.428-26.927,83.871-29.775
		c36.491-3.414,70.596,4.537,102.43,22.369c6.566,3.678,12.9,7.985,18.678,12.798c5.61,4.673,5.131,10.598-0.093,15.734
		c-1.903,1.871-3.566,3.984-5.439,5.887c-6.367,6.471-10.066,6.899-17.482,1.902c-15.297-10.309-31.698-18.324-49.736-22.305
		c-19.46-4.294-39.082-4.911-58.846-1.236c-39.461,7.337-70.196,27.905-93.115,60.53c-20.687,29.447-28.163,62.277-24.182,97.782
		c4.82,42.992,25.723,76.842,60.579,101.747c27.71,19.799,59.195,28.02,93.205,25.527c33.333-2.443,62.267-15.18,86.958-37.838
		c23.255-21.339,37.788-47.529,44.025-78.258c1.792-8.828,2.048-18.007,2.534-27.05c0.514-9.563,4.265-13.746,13.828-14.479
		c1.759-0.135,3.503-0.566,5.235-0.947c7.65-1.684,13.466,1.893,13.622,9.639c0.212,10.503,0.121,21.143-1.311,31.522
		c-4.339,31.447-16.954,59.585-36.653,84.364c-15.653,19.691-34.936,35.238-57.215,46.991
		c-19.523,10.299-40.41,16.158-62.242,18.766C380.428,477.536,374.022,477.782,369.603,478.115z"/>
</g>
</svg>
